<svg version="1.1" xmlns="http://www.w3.org/2000/svg" xmlns:xlink="http://www.w3.org/1999/xlink" width="1001" height="723" viewBox="0,0,1001,723"><g transform="translate(20.02,41.18) scale(1.33467,1.33467)"><g id="wick_project_bg" fill-opacity="0" fill="#ffffff" fill-rule="nonzero" stroke="none" stroke-width="1" stroke-linecap="butt" stroke-linejoin="miter" stroke-miterlimit="10" stroke-dasharray="" stroke-dashoffset="0" font-family="none" font-weight="none" font-size="none" text-anchor="none" style="mix-blend-mode: normal"><rect x="0" y="0" width="720" height="480"/></g><g data-paper-data="{&quot;wickUUID&quot;:&quot;ff225919-37ef-4df9-bd02-239add84ee55&quot;,&quot;wickType&quot;:&quot;clipsandpaths&quot;}" fill="#ffffff" fill-rule="none" stroke="#ffffff" stroke-width="1" stroke-linecap="none" stroke-linejoin="miter" stroke-miterlimit="10" stroke-dasharray="" stroke-dashoffset="0" font-family="none" font-weight="none" font-size="none" text-anchor="none" style="mix-blend-mode: normal"><path d="M488.55627,206.84405c-23.695,57.93333 -43.28729,105.54629 -43.54096,105.81329c-0.33167,0.34933 1.00761,0.39017 0.74761,0.13017c-0.199,-0.199 -7.44523,-18.85147 -16.11056,-41.46947l-15.78654,-41.19503l-5.38416,-0.55424c-29.494,-0.51867 -87.31347,-1.39489 -87.38347,-1.32456c-0.04967,0.04967 -0.29079,3.10526 0.43121,5.48359c0.722,2.37867 1.33368,4.74159 1.34468,5.19992c0.011,0.45833 10.18225,31.51319 22.60092,69.00486l22.86907,68.57473l66.64193,0.17602l66.74253,-0.26697l62.69323,-136.72898l62.54268,-136.50891l-2.6099,-1.2994c-1.01433,-0.05733 -22.11326,-0.28236 -46.88426,-0.50003l-45.69688,-0.09232z" data-paper-data="{&quot;wickUUID&quot;:&quot;51febb3e-93a2-4ca6-8322-7614275cdc88&quot;,&quot;wickType&quot;:&quot;path&quot;}" fill-rule="evenodd" stroke-linecap="butt"/><path d="M152.1533,104.16811c-19.06667,0.32833 -35.34969,0.64609 -36.17802,0.70609l-2.3047,1.19453l41.31417,138.00851c22.72167,75.9 41.54024,138.38386 41.58757,138.44653c0.143,0.18867 75.77552,1.02288 87.26585,0.92088l11.50728,-1.14475l-44.3837,-139.05836l-44.38477,-139.04849l-10.27619,-0.58234c-5.21167,-0.022 -25.08082,0.22907 -44.14749,0.5574z" data-paper-data="{&quot;wickUUID&quot;:&quot;b04b96cd-f26d-4a80-95ae-fe5cbd582136&quot;,&quot;wickType&quot;:&quot;path&quot;}" fill-rule="evenodd" stroke-linecap="butt"/><line x1="113.14961" y1="104.17323" x2="196.61417" y2="382.91339" data-paper-data="{&quot;wickUUID&quot;:&quot;ae9e7044-4981-49ee-842f-3c320d58e6f1&quot;,&quot;wickType&quot;:&quot;path&quot;}" fill-rule="nonzero" stroke-linecap="round"/><line x1="196.61417" y1="382.91339" x2="295.82677" y2="383.70079" data-paper-data="{&quot;wickUUID&quot;:&quot;28ade4dc-cfcc-4731-9dd4-614a259046de&quot;,&quot;wickType&quot;:&quot;path&quot;}" fill-rule="nonzero" stroke-linecap="round"/><line x1="295.82677" y1="383.70079" x2="206.06299" y2="102.59843" data-paper-data="{&quot;wickUUID&quot;:&quot;b17efd95-699b-40b3-ba36-2af0e4d4c04e&quot;,&quot;wickType&quot;:&quot;path&quot;}" fill-rule="nonzero" stroke-linecap="round"/><line x1="295.82677" y1="383.70079" x2="206.06299" y2="102.59843" data-paper-data="{&quot;wickUUID&quot;:&quot;28803d23-28b6-44df-9b0c-1ea7900df187&quot;,&quot;wickType&quot;:&quot;path&quot;}" id="b17efd95-699b-40b3-ba36-2af0e4d4c04e" fill-rule="nonzero" stroke-linecap="round"/><line x1="113.82848" y1="104.85452" x2="207.24349" y2="103.32312" data-paper-data="{&quot;wickUUID&quot;:&quot;00f77647-c6d8-454d-a9cf-a994d25120c5&quot;,&quot;wickType&quot;:&quot;path&quot;}" fill-rule="nonzero" stroke-linecap="round"/><line x1="322.09801" y1="237.32006" x2="368.80551" y2="378.20827" data-paper-data="{&quot;wickUUID&quot;:&quot;948fd61c-f9f1-470a-8e95-45057e73a839&quot;,&quot;wickType&quot;:&quot;path&quot;}" fill-rule="nonzero" stroke-linecap="round"/><line x1="368.80551" y1="376.67688" x2="501.27106" y2="376.67688" data-paper-data="{&quot;wickUUID&quot;:&quot;287fe880-fe74-4711-9099-67c2f7a5436c&quot;,&quot;wickType&quot;:&quot;path&quot;}" fill-rule="nonzero" stroke-linecap="round"/><line x1="501.27106" y1="377.44257" x2="627.61103" y2="101.79173" data-paper-data="{&quot;wickUUID&quot;:&quot;a2576b87-ecde-43bc-8b5c-39e4599d63c2&quot;,&quot;wickType&quot;:&quot;path&quot;}" fill-rule="nonzero" stroke-linecap="round"/><line x1="627.61103" y1="101.79173" x2="532.66462" y2="101.02603" data-paper-data="{&quot;wickUUID&quot;:&quot;2b690183-8dd5-42f8-9a8b-0f4791fb0319&quot;,&quot;wickType&quot;:&quot;path&quot;}" fill-rule="nonzero" stroke-linecap="round"/><line x1="531.89893" y1="101.02603" x2="445.37519" y2="312.35835" data-paper-data="{&quot;wickUUID&quot;:&quot;0c7744e5-5853-409c-b0e6-82e5133256c9&quot;,&quot;wickType&quot;:&quot;path&quot;}" fill-rule="nonzero" stroke-linecap="round"/><line x1="445.37519" y1="312.35835" x2="413.98162" y2="230.42879" data-paper-data="{&quot;wickUUID&quot;:&quot;488aadba-026f-4984-9686-fe54424c8004&quot;,&quot;wickType&quot;:&quot;path&quot;}" fill-rule="nonzero" stroke-linecap="round"/><line x1="413.98162" y1="229.66309" x2="319.80092" y2="228.1317" data-paper-data="{&quot;wickUUID&quot;:&quot;c6e384a3-a020-49aa-9efa-ff3832e57f6c&quot;,&quot;wickType&quot;:&quot;path&quot;}" fill-rule="nonzero" stroke-linecap="round"/><line x1="319.80092" y1="228.1317" x2="322.86371" y2="238.08576" data-paper-data="{&quot;wickUUID&quot;:&quot;bfe06aa5-2e3d-4289-8b0e-6073f620dd33&quot;,&quot;wickType&quot;:&quot;path&quot;}" fill-rule="nonzero" stroke-linecap="round"/></g><g fill="none" fill-rule="nonzero" stroke="none" stroke-width="1" stroke-linecap="butt" stroke-linejoin="miter" stroke-miterlimit="10" stroke-dasharray="" stroke-dashoffset="0" font-family="sans-serif" font-weight="normal" font-size="12" text-anchor="start" style="mix-blend-mode: normal"/><g id="wick_project_gui" fill="none" fill-rule="nonzero" stroke="none" stroke-width="1" stroke-linecap="butt" stroke-linejoin="miter" stroke-miterlimit="10" stroke-dasharray="" stroke-dashoffset="0" font-family="sans-serif" font-weight="normal" font-size="12" text-anchor="start" style="mix-blend-mode: normal"/></g></svg>